<svg width="32" height="32" viewBox="-2 -2 28 28" fill="none" xmlns="http://www.w3.org/2000/svg">
  <rect x="-2" y="-2" width="28" height="28" rx="6" fill="#0f172a"/>
  <path d="M12 0C12 0 13.5 5 14.5 8C15.2 6.2 18.5 2.5 18.5 2.5C18.5 2.5 16.5 7 15.5 9C17.5 8.5 24 7.5 24 7.5C24 7.5 17.5 10 15.5 11C17 12 22 16 22 16C22 16 16.5 13.5 14.5 12.5C15 14.5 16 24 16 24C16 24 13 16 12 14C11 16 8 24 8 24C8 24 9 14.5 9.5 12.5C7.5 13.5 2 16 2 16C2 16 7 12 8.5 11C6.5 10 0 7.5 0 7.5C0 7.5 6.8 8.5 8.5 9C7.5 7 5.5 2.5 5.5 2.5C5.5 2.5 8.8 6.2 9.5 8C10.5 5 12 0 12 0Z" fill="#5cb338"/>
</svg>
